<svg width="67" height="90" viewBox="0 0 67 90" fill="none" xmlns="http://www.w3.org/2000/svg">
<g filter="url(#filter0_d_778_1454)">
<path d="M4 0H63V81.7719L32.0213 55.2293L4 81.7719V0Z" fill="url(#paint0_linear_778_1454)"/>
<g filter="url(#filter1_d_778_1454)">
<path d="M15.6569 33.568L14.2889 33.312C14.5449 32.2773 14.8116 31.3413 15.0889 30.504C15.3716 29.6667 15.6622 28.9493 15.9609 28.352C16.2596 27.7547 16.5636 27.296 16.8729 26.976C17.1876 26.6507 17.5022 26.488 17.8169 26.488C18.4516 26.488 19.0356 27.0773 19.5689 28.256C20.1022 29.4293 20.5556 31.1307 20.9289 33.36L19.5129 33.552C19.4489 33.2 19.3796 32.84 19.3049 32.472C19.2302 32.0987 19.1529 31.736 19.0729 31.384C18.9449 31.3787 18.8062 31.376 18.6569 31.376C18.3956 31.376 18.1182 31.3813 17.8249 31.392C17.5369 31.4027 17.2516 31.4213 16.9689 31.448C16.6916 31.4693 16.4329 31.4933 16.1929 31.52C16.0916 31.8613 15.9929 32.208 15.8969 32.56C15.8062 32.9067 15.7262 33.2427 15.6569 33.568ZM17.1289 28.896C17.0116 29.1467 16.8542 29.552 16.6569 30.112C16.8862 30.0853 17.1289 30.0667 17.3849 30.056C17.6409 30.04 17.8916 30.032 18.1369 30.032C18.3449 30.032 18.5449 30.0373 18.7369 30.048C18.6622 29.776 18.5902 29.5333 18.5209 29.32C18.4569 29.1067 18.3982 28.9387 18.3449 28.816C18.2329 28.528 18.1342 28.3253 18.0489 28.208C17.9636 28.0853 17.8756 28.024 17.7849 28.024C17.6889 28.024 17.5929 28.088 17.4969 28.216C17.4009 28.3387 17.2782 28.5653 17.1289 28.896ZM24.3782 33.624C23.8662 33.624 23.4422 33.5413 23.1062 33.376C22.7702 33.216 22.5009 32.9947 22.2982 32.712C22.1009 32.424 21.9516 32.0933 21.8502 31.72C21.7542 31.3467 21.6902 30.9467 21.6582 30.52C21.6316 30.0933 21.6182 29.6613 21.6182 29.224C21.6182 28.728 21.6342 28.2453 21.6662 27.776C21.6982 27.3013 21.7329 26.904 21.7702 26.584L23.2422 26.672C23.1889 27.0613 23.1462 27.4107 23.1142 27.72C23.0876 28.024 23.0689 28.312 23.0582 28.584C23.0476 28.856 23.0422 29.136 23.0422 29.424C23.0422 29.648 23.0449 29.8907 23.0502 30.152C23.0609 30.408 23.0849 30.664 23.1222 30.92C23.1649 31.1707 23.2289 31.4 23.3142 31.608C23.4049 31.8107 23.5302 31.976 23.6902 32.104C23.8556 32.2267 24.0662 32.288 24.3222 32.288C24.5996 32.288 24.8236 32.2267 24.9942 32.104C25.1702 31.976 25.3062 31.808 25.4022 31.6C25.4982 31.3867 25.5676 31.152 25.6102 30.896C25.6529 30.6347 25.6769 30.3707 25.6822 30.104C25.6929 29.832 25.6982 29.576 25.6982 29.336C25.6982 28.8827 25.6849 28.4427 25.6582 28.016C25.6316 27.5893 25.5969 27.136 25.5542 26.656L27.0262 26.544C27.0689 27.056 27.1009 27.5253 27.1222 27.952C27.1436 28.3733 27.1542 28.7627 27.1542 29.12C27.1542 29.6053 27.1356 30.072 27.0982 30.52C27.0662 30.968 26.9969 31.3813 26.8902 31.76C26.7836 32.1333 26.6289 32.4613 26.4262 32.744C26.2236 33.0213 25.9542 33.2373 25.6182 33.392C25.2876 33.5467 24.8742 33.624 24.3782 33.624ZM31.2352 33.64C30.5846 33.64 30.0192 33.496 29.5392 33.208C29.0592 32.9253 28.6886 32.5253 28.4272 32.008C28.1659 31.4907 28.0352 30.88 28.0352 30.176C28.0352 29.9093 28.0672 29.6133 28.1312 29.288C28.2006 28.9573 28.3099 28.6293 28.4592 28.304C28.6086 27.9733 28.8086 27.672 29.0592 27.4C29.3099 27.128 29.6166 26.9093 29.9792 26.744C30.3419 26.5733 30.7686 26.488 31.2592 26.488C31.6806 26.488 32.0486 26.5413 32.3632 26.648C32.6779 26.7493 32.9499 26.88 33.1792 27.04C33.4086 27.1947 33.5979 27.3573 33.7472 27.528C33.9019 27.6987 34.0246 27.856 34.1152 28C34.2059 28.1387 34.2726 28.24 34.3152 28.304L33.1552 29.192C33.0379 28.9733 32.8992 28.76 32.7392 28.552C32.5792 28.3387 32.3819 28.1627 32.1472 28.024C31.9126 27.8853 31.6219 27.816 31.2752 27.816C30.9179 27.816 30.6219 27.896 30.3872 28.056C30.1526 28.216 29.9659 28.4187 29.8272 28.664C29.6939 28.9093 29.6006 29.1707 29.5472 29.448C29.4939 29.72 29.4672 29.9733 29.4672 30.208C29.4672 30.4587 29.4939 30.7067 29.5472 30.952C29.6006 31.1973 29.6912 31.4213 29.8192 31.624C29.9526 31.8267 30.1286 31.9893 30.3472 32.112C30.5712 32.2293 30.8512 32.288 31.1872 32.288C31.5606 32.288 31.8646 32.2213 32.0992 32.088C32.3392 31.9547 32.5392 31.768 32.6992 31.528C32.8592 31.2827 33.0086 30.9973 33.1472 30.672L34.4592 31.264C34.2246 31.7493 33.9606 32.1707 33.6672 32.528C33.3739 32.8853 33.0299 33.16 32.6352 33.352C32.2406 33.544 31.7739 33.64 31.2352 33.64ZM37.632 33.592C37.5947 33.128 37.568 32.6773 37.552 32.24C37.5414 31.8027 37.536 31.3893 37.536 31C37.536 30.3547 37.5494 29.776 37.576 29.264C37.6027 28.7467 37.6294 28.3013 37.656 27.928C37.1974 27.9547 36.752 27.9893 36.32 28.032C35.888 28.0747 35.488 28.1307 35.12 28.2L35.136 26.864C35.76 26.752 36.4 26.672 37.056 26.624C37.712 26.5707 38.368 26.544 39.024 26.544C39.4934 26.544 39.9414 26.5547 40.368 26.576C40.8 26.5973 41.2134 26.6293 41.608 26.672L41.6 28.056C41.2267 27.9973 40.8214 27.9573 40.384 27.936C39.952 27.9093 39.5094 27.896 39.056 27.896C39.0294 28.2587 39.0054 28.664 38.984 29.112C38.9627 29.5547 38.952 30.0293 38.952 30.536C38.952 30.9893 38.9627 31.4667 38.984 31.968C39.0107 32.4693 39.0427 32.9973 39.08 33.552L37.632 33.592ZM42.4545 33.552C42.4119 33.2747 42.3745 32.9387 42.3425 32.544C42.3159 32.1493 42.2945 31.72 42.2785 31.256C42.2679 30.792 42.2625 30.32 42.2625 29.84C42.2625 29.2373 42.2732 28.6507 42.2945 28.08C42.3159 27.5093 42.3479 27.008 42.3905 26.576L43.8625 26.6C43.8039 26.9787 43.7585 27.424 43.7265 27.936C43.6999 28.448 43.6865 29.0293 43.6865 29.68C43.6865 30.3413 43.6972 31.0053 43.7185 31.672C43.7452 32.3387 43.7745 32.9493 43.8065 33.504L42.4545 33.552ZM47.9748 33.536C47.4735 33.536 47.0175 33.4427 46.6068 33.256C46.1962 33.0747 45.8415 32.8213 45.5428 32.496C45.2442 32.1707 45.0148 31.8 44.8548 31.384C44.6948 30.968 44.6148 30.528 44.6148 30.064C44.6148 29.6373 44.6788 29.2187 44.8068 28.808C44.9348 28.392 45.1295 28.016 45.3908 27.68C45.6522 27.3387 45.9828 27.0667 46.3828 26.864C46.7882 26.6613 47.2655 26.56 47.8148 26.56C48.3855 26.56 48.8815 26.6587 49.3028 26.856C49.7242 27.048 50.0708 27.3067 50.3428 27.632C50.6148 27.9573 50.8175 28.3253 50.9508 28.736C51.0842 29.1467 51.1508 29.568 51.1508 30C51.1508 30.5173 51.0735 30.992 50.9188 31.424C50.7642 31.856 50.5455 32.232 50.2628 32.552C49.9802 32.8667 49.6442 33.1093 49.2548 33.28C48.8655 33.4507 48.4388 33.536 47.9748 33.536ZM47.9748 32.2C48.2948 32.2 48.5908 32.1227 48.8628 31.968C49.1348 31.808 49.3535 31.56 49.5188 31.224C49.6842 30.888 49.7668 30.4507 49.7668 29.912C49.7668 29.448 49.6762 29.0667 49.4948 28.768C49.3135 28.4693 49.0788 28.248 48.7908 28.104C48.5028 27.96 48.2015 27.888 47.8868 27.888C47.5295 27.888 47.2282 27.952 46.9828 28.08C46.7375 28.208 46.5402 28.3813 46.3908 28.6C46.2415 28.8133 46.1348 29.0533 46.0708 29.32C46.0068 29.5867 45.9748 29.8613 45.9748 30.144C45.9748 30.4213 46.0282 30.6853 46.1348 30.936C46.2415 31.1813 46.3855 31.4 46.5668 31.592C46.7535 31.7787 46.9668 31.928 47.2068 32.04C47.4468 32.1467 47.7028 32.2 47.9748 32.2ZM52.1268 33.584C52.1268 32.752 52.1374 32.0027 52.1588 31.336C52.1854 30.664 52.2174 30.0533 52.2548 29.504C52.2974 28.9493 52.3428 28.4347 52.3908 27.96C52.4441 27.48 52.4948 27.0213 52.5428 26.584L53.9188 26.64C53.8974 26.8053 53.8734 26.984 53.8468 27.176C54.0281 27.4213 54.2254 27.7013 54.4388 28.016C54.6574 28.3307 54.8788 28.664 55.1028 29.016C55.3321 29.3627 55.5561 29.712 55.7748 30.064C55.9934 30.4107 56.2014 30.744 56.3988 31.064C56.5961 31.3787 56.7694 31.6613 56.9188 31.912C56.9561 31.544 56.9748 31.0267 56.9748 30.36C56.9748 30.0187 56.9694 29.6667 56.9588 29.304C56.9481 28.9413 56.9348 28.5947 56.9188 28.264C56.9028 27.928 56.8814 27.6293 56.8548 27.368C56.8281 27.1013 56.7988 26.8933 56.7668 26.744L58.2708 26.56C58.2814 26.8213 58.2868 27.1653 58.2868 27.592C58.2921 28.0133 58.2948 28.4613 58.2948 28.936C58.2948 29.3573 58.2921 29.7813 58.2868 30.208C58.2814 30.6293 58.2708 31.0187 58.2548 31.376C58.2388 31.7333 58.2148 32.0293 58.1828 32.264C58.1241 32.7227 58.0068 33.0613 57.8308 33.28C57.6548 33.4987 57.4068 33.608 57.0868 33.608C56.8254 33.608 56.5854 33.5173 56.3668 33.336C56.1534 33.1547 55.9214 32.856 55.6708 32.44C55.5001 32.152 55.3001 31.8213 55.0708 31.448C54.8468 31.0693 54.6121 30.6827 54.3668 30.288C54.1268 29.8933 53.8948 29.5173 53.6708 29.16C53.6281 29.784 53.5961 30.408 53.5748 31.032C53.5534 31.6507 53.5428 32.2107 53.5428 32.712C53.5428 32.872 53.5428 33.0213 53.5428 33.16C53.5428 33.304 53.5454 33.4373 53.5508 33.56L52.1268 33.584Z" fill="white"/>
</g>
</g>
<defs>
<filter id="filter0_d_778_1454" x="0" y="0" width="67" height="89.772" filterUnits="userSpaceOnUse" color-interpolation-filters="sRGB">
<feFlood flood-opacity="0" result="BackgroundImageFix"/>
<feColorMatrix in="SourceAlpha" type="matrix" values="0 0 0 0 0 0 0 0 0 0 0 0 0 0 0 0 0 0 127 0" result="hardAlpha"/>
<feOffset dy="4"/>
<feGaussianBlur stdDeviation="2"/>
<feComposite in2="hardAlpha" operator="out"/>
<feColorMatrix type="matrix" values="0 0 0 0 0 0 0 0 0 0 0 0 0 0 0 0 0 0 0.25 0"/>
<feBlend mode="normal" in2="BackgroundImageFix" result="effect1_dropShadow_778_1454"/>
<feBlend mode="normal" in="SourceGraphic" in2="effect1_dropShadow_778_1454" result="shape"/>
</filter>
<filter id="filter1_d_778_1454" x="13.6976" y="26.488" width="45.1888" height="8.33494" filterUnits="userSpaceOnUse" color-interpolation-filters="sRGB">
<feFlood flood-opacity="0" result="BackgroundImageFix"/>
<feColorMatrix in="SourceAlpha" type="matrix" values="0 0 0 0 0 0 0 0 0 0 0 0 0 0 0 0 0 0 127 0" result="hardAlpha"/>
<feOffset dy="0.591479"/>
<feGaussianBlur stdDeviation="0.295739"/>
<feComposite in2="hardAlpha" operator="out"/>
<feColorMatrix type="matrix" values="0 0 0 0 0 0 0 0 0 0 0 0 0 0 0 0 0 0 0.25 0"/>
<feBlend mode="normal" in2="BackgroundImageFix" result="effect1_dropShadow_778_1454"/>
<feBlend mode="normal" in="SourceGraphic" in2="effect1_dropShadow_778_1454" result="shape"/>
</filter>
<linearGradient id="paint0_linear_778_1454" x1="73.5" y1="-15" x2="-2.5" y2="97" gradientUnits="userSpaceOnUse">
<stop stop-color="#666666"/>
<stop offset="0.47" stop-color="#393939"/>
<stop offset="0.79"/>
</linearGradient>
</defs>
</svg>
