<svg width="67" height="90" viewBox="0 0 67 90" fill="none" xmlns="http://www.w3.org/2000/svg">
<g filter="url(#filter0_d_778_1451)">
<path d="M4 0H63V81.7719L32.0213 55.2293L4 81.7719V0Z" fill="url(#paint0_linear_778_1451)"/>
<g filter="url(#filter1_d_778_1451)">
<path d="M14.688 33.552C14.6827 33.4933 14.68 33.4293 14.68 33.36C14.68 33.2907 14.68 33.2107 14.68 33.12C14.68 32.8907 14.6853 32.6187 14.696 32.304C14.7067 31.984 14.7227 31.6453 14.744 31.288C14.7653 30.9253 14.7867 30.5627 14.808 30.2C14.8293 29.832 14.8507 29.48 14.872 29.144C14.8987 28.808 14.9227 28.5067 14.944 28.24C14.8267 28.2773 14.7227 28.312 14.632 28.344L14.424 27C15.0267 26.8293 15.5867 26.7013 16.104 26.616C16.6267 26.5307 17.0987 26.488 17.52 26.488C18.3787 26.488 19.0347 26.6507 19.488 26.976C19.9413 27.3013 20.168 27.7733 20.168 28.392C20.168 28.744 20.0907 29.04 19.936 29.28C19.7813 29.5147 19.5627 29.7093 19.28 29.864C19.9733 30.216 20.32 30.7893 20.32 31.584C20.32 31.936 20.2533 32.232 20.12 32.472C19.992 32.7067 19.8267 32.896 19.624 33.04C19.4213 33.184 19.2053 33.2907 18.976 33.36C18.752 33.4347 18.5387 33.4827 18.336 33.504C18.1387 33.5307 17.984 33.544 17.872 33.544C17.5947 33.544 17.2987 33.5173 16.984 33.464C16.6693 33.4107 16.3627 33.3307 16.064 33.224C16.064 33.3307 16.064 33.432 16.064 33.528L14.688 33.552ZM17.552 27.824C17.36 27.824 17.1573 27.8347 16.944 27.856C16.736 27.872 16.528 27.8987 16.32 27.936C16.288 28.3253 16.256 28.7787 16.224 29.296C16.2933 29.3013 16.3627 29.304 16.432 29.304C16.5067 29.304 16.5813 29.304 16.656 29.304C18.064 29.304 18.768 29.016 18.768 28.44C18.768 28.248 18.6587 28.0987 18.44 27.992C18.2267 27.88 17.9307 27.824 17.552 27.824ZM16.84 30.568C16.728 30.568 16.6133 30.568 16.496 30.568C16.384 30.568 16.2693 30.5707 16.152 30.576C16.1413 30.8107 16.1307 31.0453 16.12 31.28C16.1147 31.5147 16.1067 31.7467 16.096 31.976C16.3947 32.0667 16.688 32.1333 16.976 32.176C17.264 32.2133 17.512 32.232 17.72 32.232C18.1627 32.232 18.48 32.1787 18.672 32.072C18.864 31.96 18.96 31.7787 18.96 31.528C18.96 31.2187 18.776 30.9813 18.408 30.816C18.0453 30.6507 17.5227 30.568 16.84 30.568ZM23.9681 33.624C23.4561 33.624 23.0321 33.5413 22.6961 33.376C22.3601 33.216 22.0907 32.9947 21.8881 32.712C21.6907 32.424 21.5414 32.0933 21.4401 31.72C21.3441 31.3467 21.2801 30.9467 21.2481 30.52C21.2214 30.0933 21.2081 29.6613 21.2081 29.224C21.2081 28.728 21.2241 28.2453 21.2561 27.776C21.2881 27.3013 21.3227 26.904 21.3601 26.584L22.8321 26.672C22.7787 27.0613 22.7361 27.4107 22.7041 27.72C22.6774 28.024 22.6587 28.312 22.6481 28.584C22.6374 28.856 22.6321 29.136 22.6321 29.424C22.6321 29.648 22.6347 29.8907 22.6401 30.152C22.6507 30.408 22.6747 30.664 22.7121 30.92C22.7547 31.1707 22.8187 31.4 22.9041 31.608C22.9947 31.8107 23.1201 31.976 23.2801 32.104C23.4454 32.2267 23.6561 32.288 23.9121 32.288C24.1894 32.288 24.4134 32.2267 24.5841 32.104C24.7601 31.976 24.8961 31.808 24.9921 31.6C25.0881 31.3867 25.1574 31.152 25.2001 30.896C25.2427 30.6347 25.2667 30.3707 25.2721 30.104C25.2827 29.832 25.2881 29.576 25.2881 29.336C25.2881 28.8827 25.2747 28.4427 25.2481 28.016C25.2214 27.5893 25.1867 27.136 25.1441 26.656L26.6161 26.544C26.6587 27.056 26.6907 27.5253 26.7121 27.952C26.7334 28.3733 26.7441 28.7627 26.7441 29.12C26.7441 29.6053 26.7254 30.072 26.6881 30.52C26.6561 30.968 26.5867 31.3813 26.4801 31.76C26.3734 32.1333 26.2187 32.4613 26.0161 32.744C25.8134 33.0213 25.5441 33.2373 25.2081 33.392C24.8774 33.5467 24.4641 33.624 23.9681 33.624ZM30.3291 33.52C30.3237 33.3493 30.3184 33.1707 30.3131 32.984C30.3131 32.7973 30.3131 32.5973 30.3131 32.384C30.3131 32.1067 30.3157 31.8187 30.3211 31.52C30.3264 31.2213 30.3371 30.9253 30.3531 30.632C30.0597 30.4827 29.7771 30.2667 29.5051 29.984C29.2384 29.696 28.9851 29.3787 28.7451 29.032C28.5051 28.68 28.2891 28.328 28.0971 27.976C27.9051 27.624 27.7424 27.3067 27.6091 27.024L28.9291 26.488C29.0197 26.7227 29.1371 26.976 29.2811 27.248C29.4251 27.5147 29.5824 27.7787 29.7531 28.04C29.9237 28.3013 30.0917 28.5387 30.2571 28.752C30.4277 28.96 30.5797 29.128 30.7131 29.256C30.8517 29.384 30.9584 29.448 31.0331 29.448C31.1131 29.448 31.2117 29.392 31.3291 29.28C31.4517 29.168 31.5797 29.0213 31.7131 28.84C31.8517 28.6533 31.9904 28.4507 32.1291 28.232C32.2731 28.008 32.4064 27.784 32.5291 27.56C32.6571 27.3307 32.7664 27.12 32.8571 26.928C32.9531 26.7307 33.0224 26.5707 33.0651 26.448L34.4091 26.96C34.2597 27.248 34.0891 27.5733 33.8971 27.936C33.7051 28.2933 33.4944 28.6507 33.2651 29.008C33.0357 29.3653 32.7931 29.688 32.5371 29.976C32.2811 30.264 32.0144 30.4827 31.7371 30.632C31.7264 30.8987 31.7211 31.2133 31.7211 31.576C31.7211 31.9333 31.7237 32.288 31.7291 32.64C31.7397 32.992 31.7477 33.2933 31.7531 33.544C31.6571 33.544 31.5424 33.544 31.4091 33.544C31.2757 33.5493 31.1397 33.552 31.0011 33.552C30.8624 33.5573 30.7344 33.56 30.6171 33.56C30.5051 33.5653 30.4251 33.568 30.3771 33.568L30.3291 33.52ZM38.0749 33.568L36.7069 33.312C36.9629 32.2773 37.2295 31.3413 37.5069 30.504C37.7895 29.6667 38.0802 28.9493 38.3789 28.352C38.6775 27.7547 38.9815 27.296 39.2909 26.976C39.6055 26.6507 39.9202 26.488 40.2349 26.488C40.8695 26.488 41.4535 27.0773 41.9869 28.256C42.5202 29.4293 42.9735 31.1307 43.3469 33.36L41.9309 33.552C41.8669 33.2 41.7975 32.84 41.7229 32.472C41.6482 32.0987 41.5709 31.736 41.4909 31.384C41.3629 31.3787 41.2242 31.376 41.0749 31.376C40.8135 31.376 40.5362 31.3813 40.2429 31.392C39.9549 31.4027 39.6695 31.4213 39.3869 31.448C39.1095 31.4693 38.8509 31.4933 38.6109 31.52C38.5095 31.8613 38.4109 32.208 38.3149 32.56C38.2242 32.9067 38.1442 33.2427 38.0749 33.568ZM39.5469 28.896C39.4295 29.1467 39.2722 29.552 39.0749 30.112C39.3042 30.0853 39.5469 30.0667 39.8029 30.056C40.0589 30.04 40.3095 30.032 40.5549 30.032C40.7629 30.032 40.9629 30.0373 41.1549 30.048C41.0802 29.776 41.0082 29.5333 40.9389 29.32C40.8749 29.1067 40.8162 28.9387 40.7629 28.816C40.6509 28.528 40.5522 28.3253 40.4669 28.208C40.3815 28.0853 40.2935 28.024 40.2029 28.024C40.1069 28.024 40.0109 28.088 39.9149 28.216C39.8189 28.3387 39.6962 28.5653 39.5469 28.896ZM44.4922 33.552C44.4762 33.1893 44.4682 32.7893 44.4682 32.352C44.4682 31.9307 44.4762 31.4827 44.4922 31.008C44.5082 30.5333 44.5322 30.0533 44.5642 29.568C44.5962 29.0773 44.6389 28.6 44.6922 28.136C44.6069 28.1573 44.5242 28.1787 44.4442 28.2C44.3695 28.216 44.3002 28.2347 44.2362 28.256L43.8282 26.984C45.1189 26.68 46.1935 26.528 47.0522 26.528C48.7962 26.528 49.6682 27.192 49.6682 28.52C49.6682 29.144 49.4602 29.64 49.0442 30.008C48.6282 30.3707 48.0175 30.6 47.2122 30.696C47.6975 31.1067 48.1855 31.4453 48.6762 31.712C49.1722 31.9733 49.6735 32.1947 50.1802 32.376L49.3002 33.552C49.0175 33.4507 48.7215 33.3093 48.4122 33.128C48.1029 32.9467 47.7962 32.7467 47.4922 32.528C47.1882 32.3093 46.8975 32.088 46.6202 31.864C46.3482 31.64 46.1055 31.432 45.8922 31.24C45.8869 31.608 45.8815 31.9813 45.8762 32.36C45.8762 32.7333 45.8762 33.12 45.8762 33.52L45.8282 33.568C45.6255 33.568 45.4069 33.568 45.1722 33.568C44.9429 33.5733 44.7349 33.584 44.5482 33.6L44.4922 33.552ZM46.9802 27.8C46.8309 27.8 46.6762 27.808 46.5162 27.824C46.3562 27.8347 46.1962 27.8507 46.0362 27.872C46.0149 28.1707 45.9962 28.4667 45.9802 28.76C45.9642 29.048 45.9509 29.336 45.9402 29.624C46.1749 29.6187 46.4282 29.6053 46.7002 29.584C46.9775 29.5573 47.2389 29.5093 47.4842 29.44C47.7295 29.3653 47.9295 29.2587 48.0842 29.12C48.2442 28.9813 48.3242 28.7973 48.3242 28.568C48.3242 28.3013 48.2149 28.1067 47.9962 27.984C47.7775 27.8613 47.4389 27.8 46.9802 27.8ZM53.2531 33.592C53.2158 33.128 53.1891 32.6773 53.1731 32.24C53.1625 31.8027 53.1571 31.3893 53.1571 31C53.1571 30.3547 53.1705 29.776 53.1971 29.264C53.2238 28.7467 53.2505 28.3013 53.2771 27.928C52.8185 27.9547 52.3731 27.9893 51.9411 28.032C51.5091 28.0747 51.1091 28.1307 50.7411 28.2L50.7571 26.864C51.3811 26.752 52.0211 26.672 52.6771 26.624C53.3331 26.5707 53.9891 26.544 54.6451 26.544C55.1145 26.544 55.5625 26.5547 55.9891 26.576C56.4211 26.5973 56.8345 26.6293 57.2291 26.672L57.2211 28.056C56.8478 27.9973 56.4425 27.9573 56.0051 27.936C55.5731 27.9093 55.1305 27.896 54.6771 27.896C54.6505 28.2587 54.6265 28.664 54.6051 29.112C54.5838 29.5547 54.5731 30.0293 54.5731 30.536C54.5731 30.9893 54.5838 31.4667 54.6051 31.968C54.6318 32.4693 54.6638 32.9973 54.7011 33.552L53.2531 33.592Z" fill="white"/>
</g>
</g>
<defs>
<filter id="filter0_d_778_1451" x="0" y="0" width="67" height="89.772" filterUnits="userSpaceOnUse" color-interpolation-filters="sRGB">
<feFlood flood-opacity="0" result="BackgroundImageFix"/>
<feColorMatrix in="SourceAlpha" type="matrix" values="0 0 0 0 0 0 0 0 0 0 0 0 0 0 0 0 0 0 127 0" result="hardAlpha"/>
<feOffset dy="4"/>
<feGaussianBlur stdDeviation="2"/>
<feComposite in2="hardAlpha" operator="out"/>
<feColorMatrix type="matrix" values="0 0 0 0 0 0 0 0 0 0 0 0 0 0 0 0 0 0 0.25 0"/>
<feBlend mode="normal" in2="BackgroundImageFix" result="effect1_dropShadow_778_1451"/>
<feBlend mode="normal" in="SourceGraphic" in2="effect1_dropShadow_778_1451" result="shape"/>
</filter>
<filter id="filter1_d_778_1451" x="13.8323" y="26.448" width="43.9886" height="8.35898" filterUnits="userSpaceOnUse" color-interpolation-filters="sRGB">
<feFlood flood-opacity="0" result="BackgroundImageFix"/>
<feColorMatrix in="SourceAlpha" type="matrix" values="0 0 0 0 0 0 0 0 0 0 0 0 0 0 0 0 0 0 127 0" result="hardAlpha"/>
<feOffset dy="0.591479"/>
<feGaussianBlur stdDeviation="0.295739"/>
<feComposite in2="hardAlpha" operator="out"/>
<feColorMatrix type="matrix" values="0 0 0 0 0 0 0 0 0 0 0 0 0 0 0 0 0 0 0.25 0"/>
<feBlend mode="normal" in2="BackgroundImageFix" result="effect1_dropShadow_778_1451"/>
<feBlend mode="normal" in="SourceGraphic" in2="effect1_dropShadow_778_1451" result="shape"/>
</filter>
<linearGradient id="paint0_linear_778_1451" x1="79.4135" y1="-23.807" x2="0.377189" y2="86.208" gradientUnits="userSpaceOnUse">
<stop offset="0.149877" stop-color="#FF0000"/>
<stop offset="0.49" stop-color="#9D0000"/>
<stop offset="0.622358" stop-color="#CE4B4B"/>
<stop offset="1" stop-color="#1E0000"/>
</linearGradient>
</defs>
</svg>
