<svg width="35" height="35" viewBox="0 0 35 35" fill="none" xmlns="http://www.w3.org/2000/svg">
<rect width="35" height="35" fill="black"/>
<path d="M24.9667 14.4083C24.1467 13.5884 23.0346 13.1277 21.875 13.1277C20.7154 13.1277 19.6033 13.5884 18.7833 14.4083C17.9634 15.2283 17.5027 16.3404 17.5027 17.5C17.5027 18.6596 17.9634 19.7717 18.7833 20.5917C19.1893 20.9977 19.6713 21.3197 20.2018 21.5395C20.7323 21.7592 21.3008 21.8723 21.875 21.8723C22.4492 21.8723 23.0177 21.7592 23.5482 21.5395C24.0787 21.3197 24.5607 20.9977 24.9667 20.5917C25.3727 20.1857 25.6947 19.7037 25.9145 19.1732C26.1342 18.6427 26.2473 18.0742 26.2473 17.5C26.2473 16.9258 26.1342 16.3573 25.9145 15.8268C25.6947 15.2963 25.3727 14.8143 24.9667 14.4083ZM10.2083 8.75V26.25H33.5417V8.75H10.2083ZM30.625 20.4167C29.8521 20.4167 29.1083 20.7229 28.5688 21.2771C28.0146 21.8167 27.7083 22.5604 27.7083 23.3333H16.0417C16.0417 22.5604 15.7354 21.8167 15.1813 21.2771C14.6417 20.7229 13.8979 20.4167 13.125 20.4167V14.5833C13.8979 14.5833 14.6417 14.2771 15.1813 13.7229C15.7354 13.1833 16.0417 12.4396 16.0417 11.6667H27.7083C27.7083 12.4396 28.0146 13.1833 28.5688 13.7229C29.1083 14.2771 29.8521 14.5833 30.625 14.5833V20.4167ZM7.29167 11.6667H4.375C3.57292 11.6667 2.91667 11.0104 2.91667 10.2083C2.91667 9.40625 3.57292 8.75 4.375 8.75H7.29167V11.6667ZM7.29167 18.9583H2.91667C2.11458 18.9583 1.45833 18.3021 1.45833 17.5C1.45833 16.6979 2.11458 16.0417 2.91667 16.0417H7.29167V18.9583ZM7.29167 26.25H1.45833C0.653333 26.25 0 25.5938 0 24.7917C0 23.9896 0.653333 23.3333 1.45833 23.3333H7.29167V26.25Z" fill="white"/>
</svg>
