<svg width="35" height="35" viewBox="0 0 35 35" fill="none" xmlns="http://www.w3.org/2000/svg">
<path d="M21.1458 4.37497C20.1789 4.37497 19.2516 4.75908 18.5678 5.44281C17.8841 6.12654 17.5 7.05387 17.5 8.0208C17.5 8.98774 17.8841 9.91507 18.5678 10.5988C19.2516 11.2825 20.1789 11.6666 21.1458 11.6666C22.1128 11.6666 23.0401 11.2825 23.7238 10.5988C24.4076 9.91507 24.7917 8.98774 24.7917 8.0208C24.7917 7.05387 24.4076 6.12654 23.7238 5.44281C23.0401 4.75908 22.1128 4.37497 21.1458 4.37497ZM14.5833 8.0208C14.5831 6.90379 14.868 5.80521 15.4111 4.82909C15.9541 3.85297 16.7373 3.03162 17.6866 2.44281C18.6358 1.85401 19.7196 1.51723 20.8353 1.46438C21.9511 1.41153 23.0619 1.64435 24.0625 2.1408C25.063 1.64495 26.1735 1.41259 27.2889 1.46574C28.4043 1.51888 29.4877 1.85577 30.4366 2.4445C31.3854 3.03324 32.1683 3.85436 32.7113 4.83016C33.2542 5.80595 33.5391 6.90414 33.5391 8.0208C33.5391 9.13746 33.2542 10.2357 32.7113 11.2114C32.1683 12.1872 31.3854 13.0084 30.4366 13.5971C29.4877 14.1858 28.4043 14.5227 27.2889 14.5759C26.1735 14.629 25.063 14.3967 24.0625 13.9008C23.0619 14.3973 21.9511 14.6301 20.8353 14.5772C19.7196 14.5244 18.6358 14.1876 17.6866 13.5988C16.7373 13.01 15.9541 12.1886 15.4111 11.2125C14.868 10.2364 14.5831 9.13781 14.5833 8.0208ZM26.6146 11.6491C27.1215 11.7 27.6335 11.6441 28.1175 11.485C28.6015 11.3258 29.0468 11.067 29.4246 10.7252C29.8024 10.3834 30.1044 9.96621 30.3111 9.50053C30.5178 9.03485 30.6245 8.53102 30.6245 8.02153C30.6245 7.51205 30.5178 7.00822 30.3111 6.54253C30.1044 6.07685 29.8024 5.65966 29.4246 5.31786C29.0468 4.97607 28.6015 4.71725 28.1175 4.55811C27.6335 4.39897 27.1215 4.34304 26.6146 4.39393C27.3294 5.46834 27.7099 6.73036 27.7083 8.0208C27.7102 9.31174 27.3296 10.5743 26.6146 11.6491ZM12.301 19.3229C12.0616 19.3223 11.8244 19.3688 11.6029 19.4599C11.3815 19.551 11.1801 19.6848 11.0104 19.8537L8.02083 22.8433V28.4375H16.2269L24.6896 26.3229L29.8404 24.1237C30.0159 24.0289 30.1501 23.8727 30.2174 23.6849C30.2848 23.4972 30.2804 23.2913 30.2052 23.1065C30.1301 22.9218 29.9893 22.7714 29.81 22.684C29.6308 22.5967 29.4255 22.5786 29.2337 22.6333L29.2046 22.6406L19.8538 24.7916H14.5833V21.875H19.1406C19.4791 21.875 19.8036 21.7405 20.0429 21.5012C20.2822 21.2619 20.4167 20.9374 20.4167 20.5989C20.4167 20.2605 20.2822 19.9359 20.0429 19.6966C19.8036 19.4573 19.4791 19.3229 19.1406 19.3229H12.3054H12.301ZM23.3144 21.0029L28.4944 19.8114C29.0461 19.6664 29.6237 19.6497 30.1828 19.7626C30.742 19.8755 31.2679 20.1151 31.72 20.4629C32.1722 20.8107 32.5386 21.2575 32.7912 21.769C33.0438 22.2805 33.1758 22.8431 33.1771 23.4135C33.177 24.1061 32.984 24.785 32.6198 25.374C32.2556 25.9631 31.7345 26.4391 31.115 26.7487L31.0756 26.7691L25.6215 29.0952L16.5856 31.3541H0V20.7812H5.95875L8.95125 17.7887C9.39216 17.3493 9.91531 17.001 10.4908 16.7638C11.0663 16.5266 11.6829 16.4051 12.3054 16.4062H19.1406C19.7253 16.4061 20.3036 16.5284 20.8382 16.765C21.3729 17.0017 21.8522 17.3476 22.2452 17.7805C22.6383 18.2134 22.9364 18.7237 23.1206 19.2786C23.3047 19.8336 23.3707 20.4209 23.3144 21.0029ZM5.10417 23.6979H2.91667V28.4375H5.10417V23.6979Z" fill="black"/>
</svg>
