<svg width="56" height="47" viewBox="0 0 56 47" fill="none" xmlns="http://www.w3.org/2000/svg">
<g clip-path="url(#clip0_13_50)">
<path d="M47.7477 11.0178C47.9425 11.0178 48.1293 10.9404 48.267 10.8027C48.4047 10.665 48.4821 10.4782 48.4821 10.2834V7.83796C48.4813 7.20014 48.2276 6.58866 47.7766 6.13765C47.3256 5.68664 46.7141 5.43292 46.0763 5.43215H42.1298L41.2294 2.77518C41.1682 2.59449 41.0391 2.4447 40.8694 2.35753C40.6998 2.27035 40.5028 2.25263 40.3203 2.30811L18.9456 8.80586C18.7686 8.87041 18.6232 9.00033 18.5392 9.16888C18.4552 9.33742 18.439 9.53176 18.4939 9.71189C18.5489 9.89201 18.6708 10.0442 18.8346 10.1371C18.9984 10.2301 19.1916 10.2567 19.3744 10.2115L40.0676 3.91933L42.0402 9.74293C42.1027 9.92737 42.2359 10.0794 42.4106 10.1656C42.5852 10.2519 42.7869 10.2652 42.9714 10.2026C43.1558 10.1401 43.3079 10.0069 43.3941 9.83226C43.4803 9.65763 43.4936 9.4559 43.4311 9.27146L42.6277 6.89943H46.0778C46.5948 6.89943 47.0148 7.31949 47.0148 7.83649V10.2834C47.0134 10.6888 47.3424 11.0178 47.7477 11.0178Z" fill="white"/>
<path d="M53.6094 22.0331C53.4146 22.0331 53.2278 22.1105 53.0901 22.2482C52.9524 22.3859 52.875 22.5727 52.875 22.7675C52.875 22.9623 52.9524 23.1491 53.0901 23.2868C53.2278 23.4245 53.4146 23.5019 53.6094 23.5019C54.1249 23.5019 54.3438 23.7207 54.3438 24.2362V33.0487C54.3438 33.5643 54.1249 33.7831 53.6094 33.7831H41.8594C41.3438 33.7831 41.125 33.5643 41.125 33.0487V25.705C41.125 25.1895 41.3438 24.9706 41.8594 24.9706H50.6719C50.8666 24.9706 51.0534 24.8933 51.1912 24.7555C51.3289 24.6178 51.4063 24.431 51.4063 24.2362V15.4237C51.4063 14.0857 50.5412 13.2206 49.2031 13.2206H4.40625C2.59528 13.2206 1.46875 12.0941 1.46875 10.2831C1.46875 8.47215 2.59528 7.34562 4.40625 7.34562H11.8616L7.41719 8.81143C7.32228 8.8388 7.23387 8.88504 7.15724 8.94737C7.08062 9.00971 7.01735 9.08686 6.97124 9.17421C6.92513 9.26156 6.89711 9.35732 6.88886 9.45575C6.88062 9.55419 6.89231 9.65327 6.92325 9.74708C6.95419 9.84089 7.00374 9.92749 7.06893 10.0017C7.13411 10.0759 7.2136 10.1362 7.30264 10.179C7.39167 10.2218 7.48842 10.2461 7.58709 10.2507C7.68577 10.2552 7.78434 10.2397 7.87691 10.2053L34.4892 1.43243C34.5808 1.40215 34.6656 1.35412 34.7386 1.29108C34.8117 1.22805 34.8716 1.15124 34.915 1.06504C34.9583 0.978845 34.9843 0.88495 34.9914 0.788718C34.9985 0.692486 34.9865 0.595801 34.9563 0.504184C34.926 0.412566 34.8779 0.32781 34.8149 0.254755C34.7519 0.1817 34.6751 0.121776 34.5889 0.0784055C34.5027 0.0350347 34.4088 0.00906622 34.3125 0.00198264C34.2163 -0.00510095 34.1196 0.00683913 34.028 0.0371211L16.2561 5.89743C16.2223 5.89156 16.1915 5.87687 16.1563 5.87687H4.40625C1.77131 5.87687 0 7.64818 0 10.2831V42.5956C0 45.2306 1.77131 47.0019 4.40625 47.0019H49.2031C50.5412 47.0019 51.4063 46.1368 51.4063 44.7987V37.455C51.4063 37.2602 51.3289 37.0734 51.1912 36.9357C51.0534 36.798 50.8666 36.7206 50.6719 36.7206C50.4771 36.7206 50.2903 36.798 50.1526 36.9357C50.0149 37.0734 49.9375 37.2602 49.9375 37.455V44.7987C49.9375 45.3143 49.7187 45.5331 49.2031 45.5331H4.40625C2.59528 45.5331 1.46875 44.4066 1.46875 42.5956V13.6789C2.22222 14.3148 3.2195 14.6894 4.40625 14.6894H49.2031C49.7187 14.6894 49.9375 14.9082 49.9375 15.4237V23.5019H41.8594C40.5213 23.5019 39.6563 24.367 39.6563 25.705V33.0487C39.6563 34.3868 40.5213 35.2519 41.8594 35.2519H53.6094C54.9474 35.2519 55.8125 34.3868 55.8125 33.0487V24.2362C55.8125 22.8982 54.9474 22.0331 53.6094 22.0331Z" fill="white"/>
<path d="M46.9998 30.8457C47.8109 30.8457 48.4685 30.1881 48.4685 29.377C48.4685 28.5658 47.8109 27.9082 46.9998 27.9082C46.1886 27.9082 45.531 28.5658 45.531 29.377C45.531 30.1881 46.1886 30.8457 46.9998 30.8457Z" fill="white"/>
</g>
<defs>
<clipPath id="clip0_13_50">
<rect width="55.8125" height="47" fill="white"/>
</clipPath>
</defs>
</svg>
