<svg width="35" height="35" viewBox="0 0 35 35" fill="none" xmlns="http://www.w3.org/2000/svg">
<path d="M17.5 17.4993C16.6347 17.4993 15.7889 17.7559 15.0694 18.2367C14.35 18.7174 13.7892 19.4007 13.4581 20.2001C13.1269 20.9995 13.0403 21.8792 13.2091 22.7279C13.3779 23.5765 13.7946 24.3561 14.4064 24.9679C15.0183 25.5798 15.7979 25.9965 16.6465 26.1653C17.4952 26.3341 18.3749 26.2475 19.1743 25.9163C19.9737 25.5852 20.657 25.0244 21.1377 24.305C21.6185 23.5855 21.875 22.7396 21.875 21.8743C21.875 20.714 21.4141 19.6012 20.5936 18.7808C19.7732 17.9603 18.6604 17.4993 17.5 17.4993ZM17.5 23.3327C17.2116 23.3327 16.9297 23.2472 16.6898 23.0869C16.45 22.9267 16.2631 22.6989 16.1527 22.4324C16.0423 22.166 16.0135 21.8727 16.0697 21.5898C16.126 21.307 16.2649 21.0471 16.4688 20.8432C16.6728 20.6392 16.9326 20.5003 17.2155 20.444C17.4984 20.3878 17.7916 20.4166 18.0581 20.527C18.3246 20.6374 18.5524 20.8243 18.7126 21.0641C18.8728 21.304 18.9584 21.5859 18.9584 21.8743C18.9584 22.2611 18.8047 22.6321 18.5312 22.9055C18.2577 23.179 17.8868 23.3327 17.5 23.3327ZM16.4646 14.1598C16.6033 14.2925 16.7669 14.3966 16.9459 14.466C17.1204 14.5432 17.3092 14.583 17.5 14.583C17.6909 14.583 17.8796 14.5432 18.0542 14.466C18.2332 14.3966 18.3968 14.2925 18.5355 14.1598L21.875 10.8785C22.1574 10.5962 22.316 10.2132 22.316 9.81393C22.316 9.41464 22.1574 9.03169 21.875 8.74935C21.5927 8.467 21.2098 8.30838 20.8105 8.30838C20.4112 8.30838 20.0282 8.467 19.7459 8.74935L18.9584 9.60977V4.37435C18.9584 3.98757 18.8047 3.61664 18.5312 3.34315C18.2577 3.06966 17.8868 2.91602 17.5 2.91602C17.1133 2.91602 16.7423 3.06966 16.4688 3.34315C16.1954 3.61664 16.0417 3.98757 16.0417 4.37435V9.60977L15.2542 8.74935C14.9719 8.467 14.5889 8.30838 14.1896 8.30838C13.7903 8.30838 13.4074 8.467 13.125 8.74935C12.8427 9.03169 12.6841 9.41464 12.6841 9.81393C12.6841 10.2132 12.8427 10.5962 13.125 10.8785L16.4646 14.1598ZM27.7084 21.8743C27.7084 21.5859 27.6228 21.304 27.4626 21.0641C27.3024 20.8243 27.0746 20.6374 26.8081 20.527C26.5416 20.4166 26.2484 20.3878 25.9655 20.444C25.6826 20.5003 25.4228 20.6392 25.2188 20.8432C25.0149 21.0471 24.876 21.307 24.8197 21.5898C24.7635 21.8727 24.7923 22.166 24.9027 22.4324C25.0131 22.6989 25.2 22.9267 25.4398 23.0869C25.6797 23.2472 25.9616 23.3327 26.25 23.3327C26.6368 23.3327 27.0078 23.179 27.2812 22.9055C27.5547 22.6321 27.7084 22.2611 27.7084 21.8743ZM29.1667 11.666H24.7917C24.4049 11.666 24.034 11.8197 23.7605 12.0932C23.487 12.3666 23.3334 12.7376 23.3334 13.1243C23.3334 13.5111 23.487 13.8821 23.7605 14.1555C24.034 14.429 24.4049 14.5827 24.7917 14.5827H29.1667C29.5535 14.5827 29.9244 14.7363 30.1979 15.0098C30.4714 15.2833 30.625 15.6542 30.625 16.041V27.7077C30.625 28.0945 30.4714 28.4654 30.1979 28.7389C29.9244 29.0124 29.5535 29.166 29.1667 29.166H5.83337C5.4466 29.166 5.07567 29.0124 4.80218 28.7389C4.52869 28.4654 4.37504 28.0945 4.37504 27.7077V16.041C4.37504 15.6542 4.52869 15.2833 4.80218 15.0098C5.07567 14.7363 5.4466 14.5827 5.83337 14.5827H10.2084C10.5951 14.5827 10.9661 14.429 11.2396 14.1555C11.5131 13.8821 11.6667 13.5111 11.6667 13.1243C11.6667 12.7376 11.5131 12.3666 11.2396 12.0932C10.9661 11.8197 10.5951 11.666 10.2084 11.666H5.83337C4.67305 11.666 3.56025 12.127 2.73978 12.9474C1.91931 13.7679 1.45837 14.8807 1.45837 16.041V27.7077C1.45837 28.868 1.91931 29.9808 2.73978 30.8013C3.56025 31.6217 4.67305 32.0827 5.83337 32.0827H29.1667C30.327 32.0827 31.4398 31.6217 32.2603 30.8013C33.0808 29.9808 33.5417 28.868 33.5417 27.7077V16.041C33.5417 14.8807 33.0808 13.7679 32.2603 12.9474C31.4398 12.127 30.327 11.666 29.1667 11.666ZM7.29171 21.8743C7.29171 22.1628 7.37724 22.4447 7.53748 22.6846C7.69773 22.9244 7.92549 23.1113 8.19196 23.2217C8.45844 23.3321 8.75166 23.3609 9.03455 23.3047C9.31744 23.2484 9.57729 23.1095 9.78124 22.9055C9.98519 22.7016 10.1241 22.4417 10.1804 22.1589C10.2366 21.876 10.2077 21.5827 10.0974 21.3163C9.98699 21.0498 9.80007 20.822 9.56025 20.6618C9.32043 20.5015 9.03847 20.416 8.75004 20.416C8.36327 20.416 7.99233 20.5697 7.71884 20.8432C7.44535 21.1166 7.29171 21.4876 7.29171 21.8743Z" fill="black"/>
</svg>
